<svg xmlns:dc="http://purl.org/dc/elements/1.1/" xmlns:cc="http://creativecommons.org/ns#" xmlns:rdf="http://www.w3.org/1999/02/22-rdf-syntax-ns#" xmlns:svg="http://www.w3.org/2000/svg" xmlns="http://www.w3.org/2000/svg" xmlns:sodipodi="http://sodipodi.sourceforge.net/DTD/sodipodi-0.dtd" xmlns:inkscape="http://www.inkscape.org/namespaces/inkscape" version="1.1" x="0px" y="0px" viewBox="0 0 100 100"><g transform="translate(0,-952.36218)"><path style="font-size:medium;font-style:normal;font-variant:normal;font-weight:normal;font-stretch:normal;text-indent:0;text-align:start;text-decoration:none;line-height:normal;letter-spacing:normal;word-spacing:normal;text-transform:none;direction:ltr;block-progression:tb;writing-mode:lr-tb;text-anchor:start;baseline-shift:baseline;opacity:1;color:#0078e8;fill:#0078e8;fill-opacity:1;stroke:none;stroke-width:6;marker:none;visibility:visible;display:inline;overflow:visible;enable-background:accumulate;font-family:Sans;-inkscape-font-specification:Sans" d="M 75.125 17 C 70.801936 17 66.474681 18.65029 63.1875 21.9375 L 58.21875 26.90625 A 3.0052038 3.0052038 0 0 0 62.46875 31.15625 L 67.40625 26.1875 C 71.703599 21.89012 78.515172 21.89012 82.8125 26.1875 C 87.109766 30.48464 87.109793 37.26525 82.8125 41.5625 L 64.59375 59.78125 C 60.29644 64.07865 53.484745 64.07865 49.1875 59.78125 C 46.000997 56.59475 45.234192 51.99595 46.78125 48.09375 A 3.0003 3.0003 0 1 0 41.21875 45.875 C 38.815346 51.9372 40.071673 59.13425 44.96875 64.03125 C 51.543057 70.60575 62.23814 70.60575 68.8125 64.03125 L 87.03125 45.8125 C 93.605667 39.23815 93.605694 28.51176 87.03125 21.9375 C 83.744078 18.65029 79.448064 17 75.125 17 z M 43.125 31 C 38.801917 30.99999 34.474683 32.65028 31.1875 35.9375 L 12.96875 54.15625 C 6.3943328 60.73065 6.3943066 71.45705 12.96875 78.03125 C 19.543094 84.60575 30.238139 84.60575 36.8125 78.03125 L 41.78125 73.0625 A 3.0052038 3.0052038 0 0 0 37.53125 68.8125 L 32.59375 73.78125 C 28.296401 78.07865 21.484828 78.07865 17.1875 73.78125 C 12.890234 69.48415 12.890208 62.70355 17.1875 58.40625 L 35.40625 40.1875 C 39.703555 35.89014 46.515254 35.89019 50.8125 40.1875 C 53.999023 43.37408 54.765801 47.9728 53.21875 51.875 A 3.0003 3.0003 0 1 0 58.78125 54.09375 C 61.184661 48.03145 59.928307 40.83464 55.03125 35.9375 C 51.744097 32.6503 47.448083 31.00001 43.125 31 z " transform="translate(0,952.36218)"/></g></svg>